# File created by Blade
# Date/Time:  Tue Jan 27 19:05:02 2015
# Frame Rate: 120.000 fps
#------------------------------------------------------
:FULLY-SPECIFIED
:DEGREES
3075
root -2.839041 31.573995 -5.066291 9.606311 -34.722266 -6.019767
Spine 1.177979 13.742223 -3.992569
Head 18.418814 24.936698 -4.140971
LeftShoulder -20.680799 19.997557 13.279248
LeftArm -4.525614 -50.077037 -71.572284
LeftForeArm -3.067460 0.000000 107.486748
LeftHand -13.151084 0.000000 36.419509
LeftHandThumb1 -26.253704 0.000000 33.147579
RightShoulder 1.900717 15.097185 -6.686576
RightArm 54.773523 -75.777742 50.894098
RightForeArm -36.756218 -0.000000 24.809734
RightHand -9.841067 -0.000000 21.388992
RightHandThumb1 -24.326973 -0.000000 -32.862282
LeftUpLeg -11.744121 13.508490 -6.925496
LeftLeg 18.732706 -0.000000 -0.000000
LeftFoot -32.791929 34.218917 -20.079967
LeftToeBase 9.595741 -0.000000 -0.000000
RightUpLeg -21.672114 -50.422251 2.619494
RightLeg 81.999459 -0.000000 -0.000000
RightFoot -21.685014 -18.075008 23.536952
RightToeBase -0.240738 -0.000000 0.000000
3076
root -2.837458 31.586510 -5.074525 9.735538 -34.662838 -5.987592
Spine 1.080692 13.845099 -4.048166
Head 18.265046 24.887134 -4.170969
LeftShoulder -20.742397 20.057620 13.175826
LeftArm -4.617447 -50.215112 -71.546562
LeftForeArm -3.276537 -0.000000 107.518105
LeftHand -13.119343 -0.000000 36.394513
LeftHandThumb1 -26.253704 0.000000 33.147579
RightShoulder 1.897694 15.059543 -6.690504
RightArm 55.013423 -75.829358 50.652320
RightForeArm -36.906219 -0.000000 24.729563
RightHand -9.709310 -0.000000 21.211377
RightHandThumb1 -24.326973 -0.000000 -32.862282
LeftUpLeg -11.754958 13.364623 -6.961269
LeftLeg 18.407147 -0.000000 -0.000000
LeftFoot -32.588838 34.337554 -19.971616
LeftToeBase 9.571733 -0.000000 -0.000000
RightUpLeg -21.729196 -50.667910 2.688559
RightLeg 81.914323 -0.000000 -0.000000
RightFoot -21.500514 -17.829846 23.618750
RightToeBase -0.117035 -0.000000 0.000000
3077
root -2.834712 31.600697 -5.083353 9.879779 -34.592864 -5.968365
Spine 0.990128 13.935070 -4.081655
Head 18.091610 24.850471 -4.234157
LeftShoulder -20.794948 20.090701 13.052554
LeftArm -4.692729 -50.460224 -71.556695
LeftForeArm -3.449061 0.000000 107.517356
LeftHand -13.004564 -0.000000 36.206290
LeftHandThumb1 -26.253704 0.000000 33.147579
RightShoulder 1.918550 15.014278 -6.725336
RightArm 54.789850 -75.796947 50.871511
RightForeArm -36.572945 -0.000000 24.869263
RightHand -10.090256 -0.000000 21.541756
RightHandThumb1 -24.326973 -0.000000 -32.862282
LeftUpLeg -11.776638 13.191613 -6.984735
LeftLeg 18.088849 -0.000000 -0.000000
LeftFoot -32.430367 34.407066 -19.972917
LeftToeBase 9.557019 -0.000000 -0.000000
RightUpLeg -21.760277 -50.925443 2.743513
RightLeg 81.821839 -0.000000 -0.000000
RightFoot -21.291920 -17.652953 23.544729
RightToeBase -0.081476 -0.000000 0.000000
3078
root -2.831149 31.614505 -5.093220 10.019156 -34.503642 -5.941148
Spine 0.908184 14.012480 -4.123096
Head 17.905355 24.767335 -4.290964
LeftShoulder -20.887194 20.136971 12.904513
LeftArm -4.664538 -50.631141 -71.584973
LeftForeArm -3.556207 -0.000000 107.517394
LeftHand -13.080503 -0.000000 36.326548
LeftHandThumb1 -26.253704 0.000000 33.147579
RightShoulder 1.928054 14.979616 -6.768599
RightArm 54.594389 -75.808249 51.017450
RightForeArm -37.226886 -0.000000 24.836400
RightHand -9.435810 0.000000 21.171799
RightHandThumb1 -24.326973 -0.000000 -32.862282
LeftUpLeg -11.800988 12.986365 -7.013210
LeftLeg 17.767326 -0.000000 -0.000000
LeftFoot -32.233733 34.574171 -19.893452
LeftToeBase 9.545082 -0.000000 -0.000000
RightUpLeg -21.768202 -51.159161 2.770601
RightLeg 81.736133 -0.000000 -0.000000
RightFoot -21.222166 -17.398112 23.594423
RightToeBase 0.486342 -0.000000 -0.000000
3079
root -2.830165 31.628410 -5.102588 10.166508 -34.394324 -5.946807
Spine 0.837974 14.070501 -4.120243
Head 17.768120 24.700991 -4.346967
LeftShoulder -20.946829 20.388290 12.722349
LeftArm -4.509487 -50.846650 -71.755510
LeftForeArm -3.847148 -0.000000 107.484452
LeftHand -12.901740 0.000000 36.411780
LeftHandThumb1 -26.253704 0.000000 33.147579
RightShoulder 1.921747 14.956393 -6.796851
RightArm 54.438894 -75.769701 51.178951
RightForeArm -36.578848 0.000000 24.974105
RightHand -10.029635 -0.000000 21.620034
RightHandThumb1 -24.326973 -0.000000 -32.862282
LeftUpLeg -11.817190 12.837139 -7.018478
LeftLeg 17.451537 -0.000000 -0.000000
LeftFoot -32.137300 34.628998 -19.972262
LeftToeBase 9.558054 -0.000000 -0.000000
RightUpLeg -21.700166 -51.395873 2.781522
RightLeg 81.617734 -0.000000 -0.000000
RightFoot -21.173172 -17.275835 23.419852
RightToeBase -0.080565 -0.000000 0.000000
3080
root -2.826604 31.640457 -5.112153 10.259487 -34.281030 -5.922534
Spine 0.818654 14.115805 -4.136126
Head 17.623852 24.642205 -4.397629
LeftShoulder -21.031114 20.374908 12.648202
LeftArm -4.612605 -50.959925 -71.732782
LeftForeArm -4.032705 -0.000000 107.455588
LeftHand -12.930656 -0.000000 36.462982
LeftHandThumb1 -26.253704 0.000000 33.147579
RightShoulder 1.972067 14.951220 -6.862614
RightArm 53.968513 -75.741642 51.615886
RightForeArm -36.746509 -0.000000 25.017193
RightHand -9.787609 -0.000000 21.540608
RightHandThumb1 -24.326973 -0.000000 -32.862282
LeftUpLeg -11.796843 12.678881 -7.025180
LeftLeg 17.143587 -0.000000 -0.000000
LeftFoot -32.020217 34.673752 -19.974251
LeftToeBase 9.663751 -0.000000 -0.000000
RightUpLeg -21.553558 -51.639289 2.678542
RightLeg 81.537693 -0.000000 -0.000000
RightFoot -21.227724 -17.098038 23.500790
RightToeBase 0.266489 -0.000000 -0.000000
3081
root -2.824135 31.653265 -5.123580 10.382599 -34.160695 -5.918428
Spine 0.786805 14.141744 -4.138816
Head 17.471233 24.595614 -4.464388
LeftShoulder -21.111010 20.346743 12.592727
LeftArm -4.755561 -51.070107 -71.702140
LeftForeArm -4.094963 -0.000000 107.391256
LeftHand -12.930240 -0.000000 36.509644
LeftHandThumb1 -26.253704 0.000000 33.147579
RightShoulder 2.007057 14.925175 -6.909832
RightArm 53.680749 -75.679417 51.885268
RightForeArm -36.701595 -0.000000 25.086469
RightHand -9.666609 -0.000000 21.643563
RightHandThumb1 -24.326973 -0.000000 -32.862282
LeftUpLeg -11.833044 12.524792 -7.013437
LeftLeg 16.926161 -0.000000 -0.000000
LeftFoot -31.948647 34.651188 -20.088761
LeftToeBase 9.659984 -0.000000 -0.000000
RightUpLeg -21.424500 -51.828259 2.615232
RightLeg 81.441585 -0.000000 -0.000000
RightFoot -21.325344 -17.085255 23.548647
RightToeBase -0.356236 -0.000000 0.000000
3082
root -2.824032 31.664685 -5.136577 10.527589 -34.034214 -5.946079
Spine 0.756035 14.167105 -4.116098
Head 17.304843 24.538135 -4.529898
LeftShoulder -21.147299 20.358483 12.575723
LeftArm -4.934688 -51.214816 -71.661056
LeftForeArm -4.340929 -0.000000 107.290645
LeftHand -12.804198 -0.000000 36.644399
LeftHandThumb1 -26.253704 0.000000 33.147579
RightShoulder 2.031702 14.891078 -6.972214
RightArm 53.648163 -75.651796 51.911337
RightForeArm -36.455096 0.000000 25.155915
RightHand -9.533212 -0.000000 21.747887
RightHandThumb1 -24.326973 -0.000000 -32.862282
LeftUpLeg -11.916329 12.414747 -6.976900
LeftLeg 16.803379 -0.000000 -0.000000
LeftFoot -31.871532 34.605561 -20.138611
LeftToeBase 9.640521 -0.000000 -0.000000
RightUpLeg -21.280157 -52.002553 2.572969
RightLeg 81.341105 -0.000000 -0.000000
RightFoot -21.460201 -17.187538 23.672866
RightToeBase 0.140737 -0.000000 -0.000000
3083
root -2.823509 31.674481 -5.150600 10.647408 -33.927915 -5.987002
Spine 0.774365 14.205635 -4.073169
Head 17.132662 24.472342 -4.601031
LeftShoulder -21.158742 20.374011 12.544986
LeftArm -5.119471 -51.394524 -71.605392
LeftForeArm -4.624857 -0.000000 107.217911
LeftHand -12.840312 -0.000000 36.858184
LeftHandThumb1 -26.253704 0.000000 33.147579
RightShoulder 2.022368 14.948702 -7.022753
RightArm 53.491839 -75.662336 52.067562
RightForeArm -36.217579 -0.000000 25.201398
RightHand -9.529187 -0.000000 21.804024
RightHandThumb1 -24.326973 -0.000000 -32.862282
LeftUpLeg -12.011642 12.382897 -6.931177
LeftLeg 16.762775 -0.000000 -0.000000
LeftFoot -31.839809 34.484050 -20.231642
LeftToeBase 9.624836 -0.000000 -0.000000
RightUpLeg -21.048860 -52.121103 2.464503
RightLeg 81.254660 -0.000000 -0.000000
RightFoot -21.475745 -17.368761 23.573899
RightToeBase 0.022153 -0.000000 -0.000000
3084
root -2.821964 31.680324 -5.164368 10.771069 -33.810008 -6.044860
Spine 0.791552 14.219615 -4.002073
Head 16.992782 24.410153 -4.665588
LeftShoulder -21.192951 20.463877 12.547802
LeftArm -5.191580 -51.514049 -71.691389
LeftForeArm -4.928649 -0.000000 107.120893
LeftHand -12.815868 -0.000000 37.269450
LeftHandThumb1 -26.253704 0.000000 33.147579
RightShoulder 2.051871 14.948029 -7.100687
RightArm 53.458364 -75.652580 52.087034
RightForeArm -36.129113 -0.000000 25.319000
RightHand -9.645975 0.000000 21.771124
RightHandThumb1 -24.326973 -0.000000 -32.862282
LeftUpLeg -12.144578 12.348153 -6.873265
LeftLeg 16.814390 -0.000000 -0.000000
LeftFoot -31.859112 34.361644 -20.334376
LeftToeBase 9.673038 -0.000000 -0.000000
RightUpLeg -20.816643 -52.213894 2.352764
RightLeg 81.203581 -0.000000 -0.000000
RightFoot -21.615908 -17.579693 23.607921
RightToeBase 0.142526 -0.000000 -0.000000
